<?xml version="1.0" encoding="UTF-8"?>
<svg viewBox="0 0 3000 2000" xmlns="http://www.w3.org/2000/svg">
 <g transform="translate(0,1760)">
  <path d="m0-1760h3e3v2e3h-3e3z" fill="#fff"/>
  <path d="m0-1760h3e3v666.67h-3e3z" fill="#ed2024"/>
  <path d="m0-426.67h3e3v666.67h-3e3z" fill="#278e43"/>
  <path transform="matrix(11.114 0 0 11.145 169.87 -2126.9)" d="m119.68 77.782 3.307 23.173 9.9905-21.169-3.6703 23.118 15.786-17.284-10.322 21.009 20.179-11.863-16.056 17.034 22.779-5.3877-20.363 11.544 23.355 1.566-22.861 5.0295 21.856 8.3806-23.328-1.9324 18.415 14.451-21.722-8.7226 13.338 19.236-18.186-14.738 7.0749 22.313-13.034-19.443 0.1837 23.407-6.7238-22.421-6.7238 22.421 0.1837-23.407-13.034 19.443 7.0749-22.313-18.186 14.738 13.338-19.236-21.722 8.7226 18.415-14.451-23.328 1.9324 21.856-8.3806-22.861-5.0295 23.355-1.566-20.363-11.544 22.779 5.3877-16.056-17.034 20.179 11.863-10.322-21.009 15.786 17.284-3.6703-23.118 9.9905 21.169 3.307-23.173z" fill="#febd11" fill-rule="evenodd"/>
 </g>
</svg>
